<svg viewBox="0 0 155 155" xmlns="http://www.w3.org/2000/svg" fill-rule="evenodd" clip-rule="evenodd" stroke-linejoin="round" stroke-miterlimit="2">
  <path d="M154.675 77.338c0 42.712-34.626 77.338-77.338 77.338C34.626 154.676 0 120.05 0 77.338 0 34.625 34.626 0 77.338 0c42.712 0 77.337 34.625 77.337 77.338" fill="#f0592b"/>
  <path d="M50.854 55.442c-4.918-3.739-.668-15.615.828-14.367 1.024.853 3.626 5.451 5.275 8.48a36.258 36.258 0 0 0-6.103 5.887m11.632-9.674c-1.528-2.709-5.972-9.9-11.362-12.194-6.554-2.79-11.647 20.526-3.792 27.04-.092.165-.173.339-.264.504 6.863-2.814 12.158-8.721 15.418-15.35" fill="#8a603c"/>
  <path d="M50.499 56.8a42.955 42.955 0 0 1 7.248-6.993c-1.96-3.598-5.048-9.058-6.266-10.072-1.778-1.482-6.825 12.623-.982 17.065" fill="#3b3e43"/>
  <path d="M101.673 49.555c1.648-3.03 4.251-7.626 5.274-8.48 1.497-1.248 5.747 10.628.829 14.367a36.296 36.296 0 0 0-6.103-5.887m9.888 11.563c-.09-.165-.171-.338-.264-.503 7.855-6.515 2.764-29.831-3.791-27.041-5.39 2.294-9.834 9.485-11.362 12.194 3.258 6.629 8.554 12.537 15.417 15.35" fill="#8a603c"/>
  <path d="M108.131 56.8a43.024 43.024 0 0 0-7.247-6.993c1.958-3.598 5.048-9.058 6.265-10.072 1.777-1.482 6.824 12.623.982 17.065" fill="#3b3e43"/>
  <path d="M77.674 39.537v.002l.038-.002h-.038Z" fill="#e96332"/>
  <path d="M77.75 39.537h-.037l.038.002v-.002Z" fill="#a84720"/>
  <path d="M117.105 78.802c0-21.66-17.54-39.223-39.19-39.262v-.003l-.04.002-.036-.002v.003h-.11v-.003l-.037.002-.038-.002v.003c-21.651.039-39.191 17.602-39.191 39.262 0 .51-9.434 11.153-2.987 23.864 3.563 7.03 22.61 6.384 41.351 6.59 19.869.218 39.487.864 43.266-6.59 6.446-12.711-2.988-23.353-2.988-23.864" fill="#8a603c"/>
  <path d="M83.858 94.952c0 14.023-11.37 25.39-25.394 25.39-14.022 0-25.392-11.367-25.392-25.39 0-14.024 11.37-25.393 25.392-25.393 14.024 0 25.394 11.369 25.394 25.393" fill="#8a603c"/>
  <path d="M123.758 95.94c0 14.023-11.367 25.392-25.392 25.392-14.023 0-25.392-11.368-25.392-25.391 0-14.025 11.368-25.394 25.391-25.394 14.026 0 25.394 11.37 25.394 25.394" fill="#8a603c"/>
  <path d="M57.83 95.63a.683.683 0 0 1-.477-.194c-.092-.09-9.595-9.082-36.525-13.197a.68.68 0 0 1-.57-.776.69.69 0 0 1 .776-.568c27.433 4.19 36.883 13.188 37.272 13.568a.681.681 0 0 1-.476 1.167M56.244 99.164a.684.684 0 0 1-.337-.088c-.111-.064-11.585-6.365-38.674-3.543a.688.688 0 0 1-.748-.606.682.682 0 0 1 .608-.747c27.605-2.878 39.015 3.443 39.49 3.713a.682.682 0 0 1-.34 1.27M16.872 108.761a.682.682 0 0 1-.222-1.325c26.252-8.992 38.794-5.397 39.317-5.238a.68.68 0 0 1-.393 1.303c-.124-.038-12.713-3.603-38.481 5.223a.697.697 0 0 1-.221.037" fill="#3d342f"/>
  <path d="M85.956 89.398c0 3.051-3.562 6.849-7.954 6.849-4.392 0-7.951-3.798-7.951-6.849 0-3.05 3.559-5.522 7.95-5.522 4.393 0 7.955 2.472 7.955 5.522" fill="#3b3e43"/>
  <path d="M69.712 105.579c-2.181 0-4.597-1.076-7.213-3.216a.816.816 0 0 1 1.033-1.262c3.059 2.502 5.693 3.36 7.829 2.548 4.257-1.62 5.52-9.24 5.53-9.315a.813.813 0 0 1 .935-.677c.445.072.748.49.678.934-.057.352-1.433 8.63-6.562 10.58a6.231 6.231 0 0 1-2.23.408" fill="#3b3e43"/>
  <path d="M84.853 106.294a5.171 5.171 0 0 1-1.936-.37c-4.878-1.952-5.792-11-5.83-11.384a.817.817 0 1 1 1.626-.154c.224 2.342 1.527 8.711 4.813 10.023 1.801.721 4.096-.114 6.823-2.478a.816.816 0 1 1 1.068 1.234c-2.403 2.081-4.6 3.129-6.564 3.129" fill="#3b3e43"/>
  <path d="M83.182 87.746c-.185.732-1.27 1.086-2.423.794-1.153-.293-1.936-1.125-1.753-1.856.187-.732 1.275-1.086 2.427-.795 1.151.294 1.935 1.125 1.75 1.857" fill="#fff"/>
  <path d="M96.845 96.99a.68.68 0 0 1-.477-1.166c.39-.38 9.841-9.378 37.272-13.569a.681.681 0 0 1 .206 1.346c-26.93 4.114-36.432 13.106-36.525 13.197a.682.682 0 0 1-.476.192M98.43 100.525a.68.68 0 0 1-.338-1.27c.472-.27 11.891-6.591 39.49-3.713a.679.679 0 1 1-.14 1.352c-27.17-2.827-38.563 3.477-38.675 3.541a.666.666 0 0 1-.337.09M137.804 110.122a.711.711 0 0 1-.222-.036c-25.765-8.826-38.357-5.26-38.483-5.223a.677.677 0 0 1-.846-.457.68.68 0 0 1 .454-.847c.523-.157 13.063-3.753 39.318 5.24a.682.682 0 0 1-.221 1.323" fill="#3d342f"/>
  <path d="M69.464 61.176c-5.06-1.474-12.506-1.62-16.726 8.127-4.218 9.747-3.697 17.919 0 19.706 3.697 1.788 21.827-4.34 23.359-11.235 1.532-6.893-.496-14.81-6.633-16.598M81.868 77.774c1.533 6.895 19.664 13.024 23.359 11.235 3.698-1.786 4.219-9.958 0-19.705-4.218-9.749-11.667-9.601-16.725-8.128-6.136 1.788-8.165 9.704-6.634 16.598" fill="#c2986b"/>
  <path d="M87.606 72.571a6.022 6.022 0 0 0 12.043 0 6.022 6.022 0 0 0-12.043 0" fill="#3b3e43"/>
  <path d="M92.271 67.841a3.16 3.16 0 0 0 3.162 3.16 3.16 3.16 0 1 0 0-6.322 3.162 3.162 0 0 0-3.162 3.162" fill="#fff"/>
  <path d="M69.8 72.571a6.017 6.017 0 0 1-6.017 6.02 6.02 6.02 0 0 1 0-12.042 6.018 6.018 0 0 1 6.017 6.022" fill="#3b3e43"/>
  <path d="M65.137 67.841a3.159 3.159 0 0 1-3.16 3.16 3.158 3.158 0 0 1-3.16-3.16 3.16 3.16 0 1 1 6.32 0" fill="#fff"/>
</svg>
