<svg viewBox="0 0 155 155" xmlns="http://www.w3.org/2000/svg" fill-rule="evenodd" clip-rule="evenodd" stroke-linejoin="round" stroke-miterlimit="2">
  <path d="M154.676 77.339c0 42.712-34.625 77.337-77.339 77.337C34.625 154.676 0 120.051 0 77.339 0 34.625 34.625 0 77.337 0c42.714 0 77.339 34.625 77.339 77.339" fill="#62a5a2"/>
  <path d="M91.68 42.734c-4.324 6.093-2.512 14.808 4.047 19.466 6.561 4.655 15.387 3.492 19.71-2.6 4.323-6.089 5.13-24.121 2.421-26.778-2.706-2.654-21.851 3.823-26.178 9.912" fill="#ea692b"/>
  <path d="M94.94 47.055c-2.42 4.057-.841 9.459 3.53 12.062 4.368 2.608 9.872 1.434 12.297-2.624 2.417-4.057 5.715-17.918 2.607-19.495-3.111-1.575-16.013 5.995-18.433 10.057" fill="#f3dbbd"/>
  <path d="M65.176 42.734c4.323 6.092 2.51 14.807-4.049 19.465-6.56 4.656-15.384 3.493-19.71-2.598-4.324-6.09-5.13-24.122-2.422-26.779 2.707-2.655 21.854 3.822 26.181 9.912" fill="#ea692b"/>
  <path d="M61.912 47.055c2.422 4.058.844 9.459-3.528 12.063-4.369 2.607-9.873 1.433-12.296-2.625-2.418-4.058-5.718-17.917-2.607-19.496 3.11-1.574 16.012 5.996 18.431 10.058" fill="#f3dbbd"/>
  <path d="M126.986 100.311c-.6-.436-1.379-.856-2.3-1.241.247.151.472.286.687.408a13.61 13.61 0 0 1 1.613.833" fill="#f6f3cf"/>
  <path d="M126.986 100.311a13.61 13.61 0 0 0-1.613-.833c.976.562 1.613.833 1.613.833M30.71 99.07c-.921.385-1.699.806-2.302 1.241a13.8 13.8 0 0 1 1.615-.833c.218-.122.444-.257.687-.408" fill="#f6f3cf"/>
  <path d="M28.408 100.311s.641-.271 1.614-.833c-.593.261-1.132.539-1.614.833" fill="#f6f3cf"/>
  <path d="M77.663 47.61v.002l.036-.002h-.036Z" fill="#e96332"/>
  <path d="M77.736 47.61h-.037l.037.002v-.002Z" fill="#a84720"/>
  <path d="M115.561 85.35c0-20.82-16.857-37.698-37.668-37.738v-.002l-.039.002-.035-.002v.002h-.104v-.002l-.037.002-.036-.002v.002c-20.81.04-37.669 16.918-37.669 37.738 0 .49-9.066 10.72-2.872 22.937 3.426 6.756 22.33 13.976 40.341 14.174 19.099.21 37.359-7.01 40.992-14.174 6.194-12.217-2.873-22.447-2.873-22.937" fill="#ea692b"/>
  <path d="M87.207 79.362a5.789 5.789 0 1 0 5.789-5.79 5.792 5.792 0 0 0-5.789 5.79" fill="#3b3e43"/>
  <path d="M91.693 74.816a3.039 3.039 0 1 0 6.079-.003 3.039 3.039 0 0 0-6.079.003" fill="#fff"/>
  <path d="M70.095 79.361a5.787 5.787 0 0 1-11.571 0 5.788 5.788 0 0 1 5.786-5.789 5.788 5.788 0 0 1 5.785 5.789" fill="#3b3e43"/>
  <path d="M65.613 74.817a3.036 3.036 0 0 1-3.038 3.036 3.037 3.037 0 1 1 0-6.075 3.037 3.037 0 0 1 3.038 3.039" fill="#fff"/>
  <g transform="matrix(0 -1 -1 0 77.443 83.262)">
    <clipPath id="a">
      <path d="m35.65-.411.001.035h-.001v.103h.001l-.001.037.001.036h-.001c-.04 20.811-16.918 37.67-37.738 37.67-.491 0-10.72 9.066-22.938 2.872C-31.782 36.916-39.002 18.012-39.2.001c-.209-19.1 7.011-37.359 14.174-40.992 12.218-6.195 22.447 2.873 22.938 2.873 20.82 0 37.698 16.857 37.738 37.668h.001l-.001.039Z"/>
    </clipPath>
    <g clip-path="url(#a)">
      <path d="M-28.131-28.13c-8.791 0-15.917 12.595-15.917 28.131 0 15.534 7.126 28.13 15.917 28.13 8.79 0 15.918-12.596 15.918-28.13 0-15.536-7.128-28.131-15.918-28.131" fill="#f3dbbd"/>
    </g>
  </g>
  <path d="M85.621 95.535c0 2.932-3.424 6.583-7.646 6.583-4.22 0-7.643-3.651-7.643-6.583 0-2.932 3.423-5.307 7.643-5.307 4.222 0 7.646 2.375 7.646 5.307" fill="#3b3e43"/>
  <path d="M70.008 111.088c-2.096 0-4.418-1.035-6.932-3.091a.78.78 0 0 1-.111-1.102.786.786 0 0 1 1.104-.111c2.939 2.406 5.472 3.229 7.525 2.448 4.091-1.556 5.304-8.879 5.315-8.952a.783.783 0 1 1 1.549.245c-.052.34-1.376 8.295-6.307 10.171-.686.262-1.4.392-2.143.392" fill="#3b3e43"/>
  <path d="M84.562 111.774a4.965 4.965 0 0 1-1.86-.354c-4.689-1.877-5.567-10.575-5.603-10.943a.785.785 0 0 1 1.562-.148c.215 2.251 1.467 8.374 4.625 9.633 1.73.694 3.936-.107 6.558-2.379a.784.784 0 1 1 1.029 1.185c-2.31 1.999-4.423 3.006-6.311 3.006" fill="#3b3e43"/>
  <path d="M82.957 93.946c-.179.705-1.222 1.045-2.33.762-1.108-.28-1.86-1.078-1.684-1.783.178-.703 1.223-1.044 2.332-.762 1.107.282 1.862 1.08 1.682 1.783" fill="#fff"/>
  <path d="M58.588 101.718a.846.846 0 0 1-.591-.241c-.112-.109-9.232-8.696-35.003-12.634a.845.845 0 0 1-.708-.963.838.838 0 0 1 .964-.707c26.427 4.036 35.555 12.727 35.93 13.095a.845.845 0 0 1-.592 1.45M57.064 105.114a.834.834 0 0 1-.417-.11c-.134-.075-11.129-6.077-37.061-3.382a.84.84 0 0 1-.927-.754.843.843 0 0 1 .753-.927c26.588-2.769 37.617 3.332 38.073 3.594a.846.846 0 0 1-.421 1.579M19.22 114.338a.845.845 0 0 1-.274-1.646c25.288-8.661 37.405-5.187 37.907-5.037a.845.845 0 0 1-.487 1.62c-.121-.035-12.179-3.441-36.873 5.017a.864.864 0 0 1-.273.046M96.089 103.025a.843.843 0 0 1-.604-.254.843.843 0 0 1 .011-1.195c.376-.367 9.502-9.059 35.929-13.095a.845.845 0 0 1 .257 1.671c-25.894 3.954-34.914 12.545-35.002 12.631a.838.838 0 0 1-.591.242M97.614 106.422a.846.846 0 0 1-.422-1.579c.456-.261 11.483-6.361 38.072-3.593a.845.845 0 1 1-.175 1.681c-25.963-2.7-36.951 3.32-37.057 3.381a.846.846 0 0 1-.418.11M135.457 115.646a.867.867 0 0 1-.273-.045c-24.692-8.457-36.752-5.053-36.873-5.017a.85.85 0 0 1-1.051-.568.843.843 0 0 1 .564-1.052c.503-.152 12.619-3.624 37.908 5.036a.845.845 0 0 1-.275 1.646" fill="#3d342f"/>
</svg>
