<svg viewBox="0 0 155 155" xmlns="http://www.w3.org/2000/svg" fill-rule="evenodd" clip-rule="evenodd" stroke-linejoin="round" stroke-miterlimit="2">
  <path d="M154.676 77.339c0 42.712-34.626 77.337-77.338 77.337C34.625 154.676 0 120.051 0 77.339 0 34.625 34.625 0 77.338 0c42.712 0 77.338 34.625 77.338 77.339" fill="#f0592b"/>
  <path d="M63.577 49.653c4.195 4.49 3.678 11.793-1.158 16.312-4.833 4.519-12.156 4.542-16.354.052-4.194-4.49-4.92-21.563-4.92-21.563s18.238.71 22.432 5.2" fill="#8a603c"/>
  <path d="M60.383 52.61c2.654 2.839 2.325 7.457-.732 10.315-3.06 2.856-7.688 2.873-10.341.035-2.655-2.84-3.114-13.639-3.114-13.639s11.534.449 14.187 3.289" fill="#c2986b"/>
  <path d="M89.969 50.012c-4.197 4.49-3.678 11.793 1.158 16.31 4.835 4.52 12.155 4.545 16.353.051 4.196-4.486 4.923-21.563 4.923-21.563s-18.239.711-22.434 5.202" fill="#8a603c"/>
  <path d="M93.163 52.968c-2.654 2.838-2.327 7.458.732 10.315 3.059 2.858 7.688 2.873 10.34.033 2.655-2.84 3.115-13.637 3.115-13.637s-11.534.45-14.187 3.289" fill="#c2986b"/>
  <path d="M72.918 59.236a2.147 2.147 0 0 1-2.138-2.384c.003-.033.357-3.259.324-6.713-.05-5.341-.947-6.739-1.174-7.007-2.74-.004-10.659-.114-17.659-.211-5.4-.077-10.5-.148-11.746-.148-.885 0-1.727-.375-2.37-1.058-2.296-2.442-2.108-9.924-1.92-13.028a2.147 2.147 0 1 1 4.287.259c-.239 3.981.043 8.168.611 9.535 1.845.014 6.222.076 11.2.145 7.09.099 15.126.211 17.718.211 1.178 0 2.237.489 3.064 1.412 3.162 3.533 2.28 13.966 1.933 17.076a2.146 2.146 0 0 1-2.13 1.911" fill="#e0dcd3"/>
  <path d="M49.83 42.953a2.148 2.148 0 0 1-2.146-2.104l-.179-8.948a2.148 2.148 0 0 1 2.104-2.189h.045c1.165 0 2.121.932 2.145 2.103l.178 8.948a2.145 2.145 0 0 1-2.103 2.189l-.044.001M60.388 42.773a2.147 2.147 0 0 1-2.146-2.084l-.178-6.083a2.147 2.147 0 0 1 2.083-2.21 2.14 2.14 0 0 1 2.21 2.082l.177 6.085a2.145 2.145 0 0 1-2.082 2.21h-.064ZM81.76 59.416c-1.08 0-2.01-.812-2.132-1.911-.347-3.113-1.228-13.544 1.933-17.076.827-.923 1.887-1.413 3.065-1.413 2.592 0 10.628-.113 17.72-.21 4.974-.071 9.351-.131 11.196-.146.561-1.371.85-5.625.611-9.534a2.147 2.147 0 0 1 2.014-2.273 2.15 2.15 0 0 1 2.274 2.012c.187 3.106.377 10.588-1.919 13.029-.643.683-1.486 1.059-2.372 1.059-1.244 0-6.346.071-11.745.147-6.999.097-14.917.208-17.658.212-.228.269-1.127 1.671-1.174 7.043a64 64 0 0 0 .324 6.676 2.146 2.146 0 0 1-2.138 2.385" fill="#e0dcd3"/>
  <path d="m104.845 43.132-.043-.001a2.144 2.144 0 0 1-2.104-2.188l.18-8.949a2.14 2.14 0 0 1 2.19-2.103 2.146 2.146 0 0 1 2.102 2.189l-.179 8.948a2.147 2.147 0 0 1-2.146 2.104M94.29 42.953l-.065-.001a2.146 2.146 0 0 1-2.083-2.211l.178-6.083a2.135 2.135 0 0 1 2.21-2.083 2.148 2.148 0 0 1 2.083 2.21l-.179 6.084a2.147 2.147 0 0 1-2.145 2.084" fill="#e0dcd3"/>
  <path d="M103.45 90.911C104.726 69.213 93 52.796 76.222 52.506v-.001l-.016.001-.018-.001v.001c-16.776.29-28.502 16.707-27.225 38.405.515 8.729-14.966 37.097 26.803 37.097l.44-.002.438.002c41.77 0 26.29-28.368 26.804-37.097" fill="#8a603c"/>
  <path d="M100.292 111.252c0 7.246-10.657 13.119-23.804 13.119-13.144 0-23.8-5.873-23.8-13.119 0-7.247 10.656-13.12 23.8-13.12 13.147 0 23.804 5.873 23.804 13.12M68.995 83.218a4.296 4.296 0 1 1-8.591-.003 4.296 4.296 0 0 1 8.591.003" fill="#3b3e43"/>
  <path d="M65 79.757a2.744 2.744 0 1 1-5.488-.001 2.744 2.744 0 0 1 5.487.001" fill="#fff"/>
  <path d="M83.19 83.216a4.296 4.296 0 1 0 8.592 0 4.296 4.296 0 0 0-8.592 0" fill="#3b3e43"/>
  <path d="M87.188 79.757a2.744 2.744 0 1 0 5.486-.002 2.744 2.744 0 0 0-5.486.002" fill="#fff"/>
</svg>
