<svg viewBox="0 0 155 155" xmlns="http://www.w3.org/2000/svg" fill-rule="evenodd" clip-rule="evenodd" stroke-linejoin="round" stroke-miterlimit="2">
  <path d="M154.675 77.337c0 42.712-34.625 77.339-77.337 77.339-42.713 0-77.337-34.627-77.337-77.339C.001 34.625 34.625-.001 77.338-.001c42.712 0 77.337 34.626 77.337 77.338" fill="#d8d423"/>
  <path d="M52.735 53.737c-1.331-1.405-3.105-2.992-4.618-3.855l-.499-.279c-.084.349-.287 1.041-.44 1.851-.266 1.684-.238 3.419-.195 5.789.048 2.344.079 5.2-.147 8.127a65.024 65.024 0 0 1-1.284 8.798c-1.244 5.776-3.099 11.172-5.163 16.321l-.122.306c-2.611 6.504-9.998 9.661-16.501 7.053-6.503-2.607-9.66-9.995-7.053-16.501a13.11 13.11 0 0 1 1.758-3.062c2.778-3.573 5.284-7.198 7.27-10.873a45.246 45.246 0 0 0 2.586-5.653c.746-1.971 1.339-4.079 2.016-6.684.674-2.572 1.557-5.794 3.067-8.785.735-1.519 1.595-3.109 2.965-4.791.689-.836 1.526-1.7 2.606-2.504 1.073-.795 2.41-1.527 3.916-1.923a10.852 10.852 0 0 1 4.417-.264c1.363.2 2.51.617 3.495 1.084 1.949.955 3.307 2.099 4.485 3.23a28.31 28.31 0 0 1 2.997 3.483 38.919 38.919 0 0 1 2.413 3.721 4.822 4.822 0 0 1-1.775 6.582 4.822 4.822 0 0 1-5.903-.863l-.291-.308Zm49.206 0c1.331-1.405 3.106-2.992 4.617-3.855l.5-.279c.085.349.287 1.041.439 1.851.268 1.684.24 3.419.196 5.789-.05 2.344-.08 5.2.146 8.127a65.182 65.182 0 0 0 1.284 8.798c1.244 5.776 3.099 11.172 5.164 16.321l.123.306c2.61 6.504 9.997 9.661 16.498 7.053 6.506-2.607 9.662-9.995 7.054-16.501a13.075 13.075 0 0 0-1.758-3.062c-2.777-3.573-5.282-7.198-7.27-10.873a45.688 45.688 0 0 1-2.587-5.653c-.743-1.971-1.337-4.079-2.016-6.684-.671-2.572-1.556-5.794-3.066-8.785-.735-1.519-1.592-3.109-2.965-4.791a14.797 14.797 0 0 0-2.603-2.504c-1.075-.795-2.412-1.527-3.918-1.923a10.852 10.852 0 0 0-4.417-.264c-1.363.2-2.509.617-3.493 1.084-1.95.955-3.309 2.099-4.484 3.23a28.332 28.332 0 0 0-2.999 3.483 38.54 38.54 0 0 0-2.414 3.721 4.821 4.821 0 0 0 7.678 5.719l.291-.308Z" fill="#7b5735"/>
  <path d="M77.914 44.107v.001l.034-.001h-.034Z" fill="#e96332"/>
  <path d="M77.983 44.107h-.036l.036.001v-.001Z" fill="#a84720"/>
  <path d="M112.874 78.919c0-19.204-15.551-34.775-34.746-34.811v-.002l-.035.001-.032-.001v.002h-.098v-.002l-.033.001-.034-.001v.002c-19.195.036-34.746 15.607-34.746 34.811 0 .452-8.365 9.888-2.649 21.157 3.159 6.233 20.597 17.72 37.212 17.903 17.616.193 34.46-11.293 37.81-17.903 5.715-11.269-2.649-20.705-2.649-21.157" fill="#8a603c"/>
  <path d="M86.721 73.395a5.34 5.34 0 1 0 5.338-5.34 5.34 5.34 0 0 0-5.338 5.34" fill="#3b3e43"/>
  <path d="M90.857 69.202a2.802 2.802 0 0 0 2.804 2.801 2.801 2.801 0 1 0 0-5.605 2.804 2.804 0 0 0-2.804 2.804" fill="#fff"/>
  <path d="M70.934 73.395a5.336 5.336 0 1 1-10.673 0 5.337 5.337 0 1 1 10.673 0" fill="#3b3e43"/>
  <path d="M66.8 69.201a2.8 2.8 0 0 1-2.802 2.802 2.8 2.8 0 0 1-2.802-2.802 2.801 2.801 0 1 1 5.604 0" fill="#fff"/>
  <g transform="matrix(0 -1 -1 0 75.299 79.407)">
    <clipPath id="a">
      <path d="M35.3-2.829v.067h-.001v.098h.001v.066h-.001C35.264 16.597 19.692 32.148.488 32.148c-.452 0-9.888 8.366-21.158 2.65-6.232-3.159-17.719-20.596-17.902-37.212-.193-17.616 11.294-34.459 17.902-37.81C-9.4-45.939.036-37.575.488-37.575c19.204 0 34.776 15.551 34.811 34.746h.001Z"/>
    </clipPath>
    <g clip-path="url(#a)">
      <path d="M-23.534-28.362c-8.109 0-19.511 11.617-19.511 25.948 0 14.329 11.402 25.948 19.511 25.948 8.108 0 14.683-11.619 14.683-25.948 0-14.331-6.575-25.948-14.683-25.948" fill="#f3dbbd"/>
    </g>
  </g>
  <path d="M85.257 88.314c0 2.705-3.156 6.071-7.05 6.071-3.896 0-7.053-3.366-7.053-6.071 0-2.705 3.157-4.897 7.053-4.897 3.894 0 7.05 2.192 7.05 4.897" fill="#3b3e43"/>
  <path d="M70.855 102.659c-1.935 0-4.076-.954-6.396-2.852a.72.72 0 0 1-.1-1.017.721.721 0 0 1 1.016-.101c2.713 2.218 5.048 2.979 6.942 2.259 3.774-1.436 4.893-8.192 4.904-8.259a.724.724 0 0 1 1.428.228c-.05.311-1.27 7.651-5.817 9.382-.634.24-1.292.36-1.977.36" fill="#3b3e43"/>
  <path d="M84.28 103.293a4.586 4.586 0 0 1-1.717-.327c-4.325-1.732-5.135-9.753-5.168-10.094a.723.723 0 1 1 1.44-.137c.2 2.077 1.355 7.723 4.267 8.887 1.597.64 3.632-.1 6.05-2.197a.724.724 0 0 1 .948 1.094c-2.131 1.845-4.081 2.774-5.82 2.774" fill="#3b3e43"/>
  <path d="M82.798 86.85c-.163.648-1.127.961-2.15.702-1.021-.26-1.716-.996-1.552-1.645.166-.649 1.129-.963 2.152-.704 1.02.261 1.716.996 1.55 1.646" fill="#fff"/>
  <path d="M60.32 93.838a.608.608 0 0 1-.423-.171c-.081-.08-8.507-8.053-32.383-11.7a.603.603 0 1 1 .183-1.193c24.321 3.715 32.702 11.692 33.045 12.029a.604.604 0 0 1-.422 1.035m-1.406 3.134a.598.598 0 0 1-.299-.079c-.099-.056-10.272-5.643-34.289-3.14a.603.603 0 0 1-.125-1.201c24.476-2.551 34.594 3.054 35.013 3.293a.604.604 0 0 1-.3 1.127m-34.907 8.509a.603.603 0 0 1-.197-1.174c23.276-7.972 34.396-4.786 34.859-4.644a.602.602 0 1 1-.349 1.155c-.109-.033-11.271-3.194-34.118 4.631a.637.637 0 0 1-.195.032m70.905-10.436a.604.604 0 0 1-.423-1.034c.345-.338 8.724-8.315 33.046-12.03a.603.603 0 1 1 .182 1.192c-23.876 3.648-32.301 11.621-32.383 11.7a.608.608 0 0 1-.422.172m1.404 3.134a.603.603 0 0 1-.299-1.127c.42-.238 10.543-5.844 35.011-3.292a.602.602 0 1 1-.124 1.199c-24.088-2.506-34.189 3.084-34.288 3.14a.59.59 0 0 1-.3.08m34.911 8.509a.656.656 0 0 1-.198-.032c-22.843-7.825-34.007-4.664-34.117-4.631a.6.6 0 0 1-.751-.405.603.603 0 0 1 .402-.751c.463-.14 11.582-3.327 34.858 4.645a.602.602 0 0 1-.194 1.174" fill="#3d342f"/>
</svg>
