<svg viewBox="0 0 155 155" xmlns="http://www.w3.org/2000/svg" fill-rule="evenodd" clip-rule="evenodd" stroke-linejoin="round" stroke-miterlimit="2">
  <path d="M154.676 77.339c0 42.711-34.625 77.337-77.339 77.337C34.625 154.676 0 120.05 0 77.339 0 34.625 34.625 0 77.337 0c42.714 0 77.339 34.625 77.339 77.339" fill="#185787"/>
  <path d="M57.754 37.243c0-.056-.738-1.051-1.813-2.058-2.188-2.046-6.331-5.073-12.317-5.961-9.286-1.393-24.491 7.213-26.56 35.094-2.062 27.878 9.187 30.629 17.963 30.629 7.278 0 15.679-5.139 22.081-12.439 4.104-15.278.646-45.248.646-45.265M97.546 37.573c0-.056.736-1.05 1.812-2.058 2.185-2.046 6.33-5.073 12.314-5.962 9.288-1.393 23.86 6.582 25.93 34.462 2.062 27.877-8.554 31.263-17.33 31.263-7.277 0-15.678-5.14-22.082-12.44-4.104-15.279-.646-45.249-.644-45.265" fill="#ccc8c0"/>
  <path d="M113.359 118.914c-.456-1.836 3.219-2.184 3.96-8.029.746-5.858-3.957-.229-3.957-.229s-3.442 3.96-17.207 3.094c-12.681-.791-9.164-15.959-9.118-21.136.013-1.48.504-2.804.954-2.985.451-.178 1.698.489 2.471 1.745 1.916 3.094 3.62 8.121 4.552 11.167.436 1.406 1.49 1.603 2.007.22 1.691-4.6.453-10.888-.735-14.993-.404-1.417.496-2.879.979-4.086 12.53-31.356.353-46.288.353-46.172-.004.107-.857-.646-2-1.58-5.005-4.096-11.3-6.535-18.13-6.535-6.746 0-12.956 2.374-17.935 6.366-.855.685-1.544 1.294-1.843 1.54-12.914 23.558-1.215 45.172-.792 45.585.431.416.753.735.714.708-.033-.029-.507 1.061-.966 2.466-1.259 3.875-3.193 11.409-1.254 16.694.511 1.385 1.573 1.196 2.003-.213 1.033-3.364 3.015-9.163 5.167-12.076.873-1.19 1.901-.516 1.854.959-.275 8.97-1.436 17.19 11.884 27.78 11.51 9.15 20.992 5.99 31.862 5.318 1.476-.09 3.484-.537 4.94-.275.893.159 2.034.255 3.452.179 4.126-.236-2.754-3.677-3.215-5.512" fill="#e0dcd3"/>
  <path d="m60.652 80.574-3.734 2.462c-2.637 9.455-2.312 16.247-2.312 16.247 2.657 12.046 3.487 2.388 4.774-1.397 1.282-3.785 4.781-7.015 4.781-7.015l-3.509-10.297ZM95.836 83.036l-4.378-2.462-4.111 10.297s4.098 3.23 5.606 7.016c1.506 3.784 2.477 13.442 5.591 1.396 0 0 .385-6.792-2.708-16.247" fill="#f7f1e6"/>
  <path d="M71.035 58.914a4.128 4.128 0 1 1-8.256 0 4.128 4.128 0 0 1 8.256 0" fill="#313439"/>
  <path d="M67.195 55.589a2.637 2.637 0 1 1-5.274.002 2.637 2.637 0 0 1 5.274-.002" fill="#fff"/>
  <path d="M84.674 58.914a4.128 4.128 0 1 0 8.256 0 4.128 4.128 0 0 0-8.256 0" fill="#313439"/>
  <path d="M88.515 55.589a2.636 2.636 0 1 0 2.637-2.637 2.637 2.637 0 0 0-2.637 2.637" fill="#fff"/>
</svg>
