<svg viewBox="0 0 155 155" xmlns="http://www.w3.org/2000/svg" fill-rule="evenodd" clip-rule="evenodd" stroke-linejoin="round" stroke-miterlimit="2">
  <path d="M154.676 77.338c0 42.712-34.626 77.338-77.338 77.338C34.625 154.676 0 120.05 0 77.338 0 34.626 34.625 0 77.338 0c42.712 0 77.338 34.626 77.338 77.338" fill="#62a5a2"/>
  <path d="M91.237 65.458c7.164-29.051 30.79-39.22 30.79-39.22s16.888 44.088-15.395 54.602L91.237 65.458Z" fill="#d45f26"/>
  <path d="M94.684 68.13c9.227-27.595 24.007-32.407 24.007-32.407s12.772 26.349-15.287 42.423l-8.72-10.016Z" fill="#f3dbbd"/>
  <path d="M63.44 65.458c-7.166-29.051-30.79-39.22-30.79-39.22S15.761 70.326 48.043 80.84L63.44 65.458Z" fill="#d45f26"/>
  <path d="M59.993 68.13c-9.23-27.595-24.009-32.407-24.009-32.407S23.212 62.072 51.271 78.146l8.722-10.016Z" fill="#f3dbbd"/>
  <path d="M77.321 57.939v.001l.035-.001h-.035Z" fill="#e96332"/>
  <path d="M77.391 57.939h-.035l.035.001v-.001Z" fill="#a84720"/>
  <path d="M113.014 93.481c0-19.606-15.876-35.504-35.476-35.539v-.003l-.034.001-.034-.001v.003h-.099v-.003l-.033.001-.035-.001v.003c-19.599.035-35.476 15.933-35.476 35.539 0 .464-8.54 10.097-2.706 21.604 3.227 6.362 21.031 13.161 37.995 13.347 17.985.198 35.182-6.601 38.604-13.347 5.834-11.507-2.706-21.14-2.706-21.604" fill="#ea692b"/>
  <path d="M86.312 87.841a5.451 5.451 0 0 0 10.902 0 5.453 5.453 0 0 0-5.45-5.451 5.452 5.452 0 0 0-5.452 5.451" fill="#3b3e43"/>
  <path d="M90.535 83.56a2.862 2.862 0 0 0 5.725 0 2.862 2.862 0 0 0-5.725 0" fill="#fff"/>
  <path d="M70.196 87.842a5.448 5.448 0 1 1-10.898 0 5.45 5.45 0 1 1 10.898 0" fill="#3b3e43"/>
  <path d="M65.974 83.56a2.86 2.86 0 0 1-2.862 2.86 2.858 2.858 0 0 1-2.86-2.86 2.859 2.859 0 0 1 2.86-2.861 2.86 2.86 0 0 1 2.862 2.861" fill="#fff"/>
  <path d="M86.641 111.841c0 3.353-3.913 7.526-8.738 7.526-4.828 0-8.739-4.173-8.739-7.526 0-3.35 3.911-6.068 8.74-6.068 4.824 0 8.737 2.718 8.737 6.068" fill="#3b3e43"/>
  <path d="M83.594 110.027c-.202.805-1.396 1.192-2.663.872-1.266-.321-2.13-1.234-1.926-2.04.205-.806 1.4-1.194 2.666-.872 1.266.323 2.129 1.234 1.923 2.04" fill="#fff"/>
  <g transform="translate(-55.363 -231.828)">
    <clipPath id="a">
      <path d="M132.901 289.768h-.067v.002h-.099v-.002h-.069v.002c-19.599.035-35.476 15.933-35.476 35.539 0 .464-8.54 10.097-2.705 21.604 3.226 6.362 21.03 13.161 37.994 13.347 17.986.199 35.182-6.601 38.604-13.347 5.834-11.507-2.706-21.14-2.706-21.604 0-19.606-15.876-35.504-35.476-35.539v-.002Z"/>
    </clipPath>
    <g clip-path="url(#a)">
      <path d="M125.772 363.581c-2.851 3.657-13.92-.194-24.726-8.608-10.805-8.414-17.256-18.204-14.407-21.864 2.849-3.659 13.922.197 24.725 8.61 10.808 8.414 17.258 18.2 14.408 21.862M139.98 362.113c2.834 3.457 14.145-.364 25.262-8.537 11.118-8.17 17.831-17.597 14.998-21.057-2.836-3.457-14.149.364-25.265 8.534-11.115 8.173-17.83 17.6-14.996 21.06" fill="#f3dbbd"/>
    </g>
  </g>
</svg>
