<svg viewBox="0 0 155 155" xmlns="http://www.w3.org/2000/svg" fill-rule="evenodd" clip-rule="evenodd" stroke-linejoin="round" stroke-miterlimit="2">
  <path d="M154.676 77.338c0 42.712-34.626 77.338-77.338 77.338-42.712 0-77.337-34.626-77.337-77.338C.001 34.624 34.626-.001 77.338-.001s77.338 34.625 77.338 77.339" fill="#185787"/>
  <path d="M126.73 94.833c0 13.996-11.344 25.341-25.342 25.341-13.996 0-25.341-11.345-25.341-25.341 0-13.995 11.345-25.342 25.341-25.342 13.998 0 25.342 11.347 25.342 25.342" fill="#8a603c"/>
  <path d="M78.629 94.929c0 13.996-11.345 25.341-25.343 25.341-13.994 0-25.341-11.345-25.341-25.341s11.347-25.343 25.341-25.343c13.998 0 25.343 11.347 25.343 25.343" fill="#8a603c"/>
  <path d="m72.07 115.58-.019.027a.084.084 0 0 0 .015-.03s.004 0 .004.003" fill="#07171b"/>
  <path d="m72.034 115.58.017.027c-.004-.007-.012-.019-.015-.03 0 0-.002 0-.002.003" fill="#07171b"/>
  <path d="M77.769 114.085c-.014 0-.027-.003-.038-.003.011 0 .024-.003.038-.003v.006Z" fill="#a84720"/>
  <path d="M77.692 114.085c.014 0 .029-.003.04-.003-.011 0-.026-.003-.04-.003v.006Z" fill="#a84720"/>
  <path d="M89.858 47.393c0 9.23 7.482 16.717 16.717 16.717 9.231 0 16.717-7.487 16.717-16.717 0-9.232-7.486-16.718-16.717-16.718-9.235 0-16.717 7.486-16.717 16.718" fill="#af5b2b"/>
  <path d="M96.939 47.392c0 5.322 4.312 9.638 9.636 9.638 5.322 0 9.637-4.316 9.637-9.638s-4.315-9.637-9.637-9.637c-5.324 0-9.636 4.315-9.636 9.637" fill="#4b190d"/>
  <path d="M89.858 47.393c0 9.23 7.482 16.717 16.717 16.717 9.231 0 16.717-7.487 16.717-16.717 0-9.232-7.486-16.718-16.717-16.718-9.235 0-16.717 7.486-16.717 16.718" fill="#8a603c"/>
  <path d="M96.939 47.392c0 5.322 4.312 9.638 9.636 9.638 5.322 0 9.637-4.316 9.637-9.638s-4.315-9.637-9.637-9.637c-5.324 0-9.636 4.315-9.636 9.637" fill="#c2986b"/>
  <path d="M77.846 38.184v59.233c.007.005.015.006.021.012l-.021 8.453v2.018h-.003l-.036 13.687" fill="#f39e2b"/>
  <path d="m77.84 123.132.059-25.702" fill="none"/>
  <path d="M65.685 47.393c0 9.23-7.483 16.717-16.718 16.717-9.23 0-16.716-7.487-16.716-16.717 0-9.232 7.486-16.718 16.716-16.718 9.235 0 16.718 7.486 16.718 16.718" fill="#af5b2b"/>
  <path d="M58.603 47.393c0 5.322-4.313 9.638-9.636 9.638-5.323 0-9.638-4.316-9.638-9.638s4.315-9.637 9.638-9.637c5.323 0 9.636 4.315 9.636 9.637" fill="#4b190d"/>
  <path d="M65.685 47.393c0 9.23-7.483 16.717-16.718 16.717-9.23 0-16.716-7.487-16.716-16.717 0-9.232 7.486-16.718 16.716-16.718 9.235 0 16.718 7.486 16.718 16.718" fill="#8a603c"/>
  <path d="M58.603 47.393c0 5.322-4.313 9.638-9.636 9.638-5.323 0-9.638-4.316-9.638-9.638s4.315-9.637 9.638-9.637c5.323 0 9.636 4.315 9.636 9.637" fill="#c2986b"/>
  <path d="M77.696 38.184v59.233c-.007.005-.015.006-.021.012l.021 8.453v2.018h.004l.035 13.687" fill="#f39e2b"/>
  <path d="M119.083 80.72c0-22.165-9.953-42.535-41.289-42.535l-.045.472v-.472c-31.338 0-41.291 20.37-41.291 42.535-2.333 9.506-6.411 9.237-4.115 21.382 2.294 12.144 15.301 16.639 24.791 16.896v-8.049c0-6.019 9.741-1.856 10.401-3.3 6.884 2.722 3.132-1.096 4.499 1.78 1.701-.946 3.634-1.528 5.715-1.528v-.21l.045.21c2.079 0 4.012.582 5.714 1.528 1.366-2.876-5.646 3.62 1.24.897.659 1.446 13.66-5.396 13.66.623v8.049c8.143 0 23.062.125 23.826-15.367.665-13.469-.818-13.405-3.151-22.911" fill="#8a603c"/>
  <path d="m77.702 123.133-.058-25.704" fill="none"/>
  <path d="M87.541 73.882a5.819 5.819 0 0 0 5.82 5.818 5.82 5.82 0 1 0 0-11.638 5.82 5.82 0 0 0-5.82 5.82" fill="#3b3e43"/>
  <path d="M92.05 69.31a3.057 3.057 0 1 0 6.114-.004 3.057 3.057 0 0 0-6.114.004" fill="#fff"/>
  <path d="M70.327 73.883a5.816 5.816 0 0 1-5.818 5.818 5.82 5.82 0 1 1 5.818-5.818" fill="#3b3e43"/>
  <path d="M65.818 69.31a3.056 3.056 0 1 1-6.111-.001 3.056 3.056 0 0 1 6.111.001" fill="#fff"/>
  <path d="M91.326 96.508c-3.612-1.141-6.448-2.576-13.555.922-7.108-3.498-9.942-2.063-13.554-.922-1.689.695-7.082 3.528-7.082 14.441 0 5.301-.121 8.517-.121 9.227 6.375 2.276 8.704 3.824 21.327 3.824 12.623 0 13.313-1.644 19.688-3.92 0-.709.38-3.83.38-9.131 0-10.913-5.395-13.746-7.083-14.441" fill="#f3dbbd"/>
  <path d="M87.261 95.552c0 3.441-3.98 7.728-8.891 7.728s-8.891-4.287-8.891-7.728c0-3.44 3.98-6.232 8.891-6.232s8.891 2.792 8.891 6.232" fill="#3b3e43"/>
  <path d="M70.001 112.764c-2.183 0-4.602-1.075-7.22-3.219a.815.815 0 1 1 1.035-1.263c3.06 2.504 5.699 3.361 7.837 2.549 4.261-1.621 5.522-9.246 5.533-9.324a.818.818 0 0 1 1.613.26c-.054.35-1.432 8.637-6.566 10.589a6.221 6.221 0 0 1-2.232.408" fill="#3b3e43"/>
  <path d="M85.156 113.479c-.674 0-1.32-.123-1.938-.371-4.882-1.953-5.796-11.008-5.833-11.394a.814.814 0 0 1 .733-.889.813.813 0 0 1 .89.735c.227 2.346 1.531 8.719 4.819 10.033 1.802.722 4.101-.113 6.829-2.48a.816.816 0 1 1 1.07 1.232c-2.405 2.086-4.606 3.134-6.57 3.134" fill="#3b3e43"/>
  <path d="M84.163 93.687c-.208.825-1.423 1.226-2.713.896-1.288-.33-2.162-1.27-1.956-2.095.209-.824 1.421-1.225 2.71-.896 1.29.332 2.165 1.27 1.959 2.095" fill="#fff"/>
</svg>
