<svg viewBox="0 0 155 155" xmlns="http://www.w3.org/2000/svg" fill-rule="evenodd" clip-rule="evenodd" stroke-linejoin="round" stroke-miterlimit="2">
  <path d="M154.676 77.339c0 42.711-34.626 77.338-77.338 77.338-42.712 0-77.337-34.627-77.337-77.338C.001 34.625 34.626 0 77.338 0s77.338 34.625 77.338 77.339" fill="#62a5a2"/>
  <path d="M87.541 46.404c-3.527 15.916-2.12 29.766 3.143 30.93 5.262 1.167 12.388-10.792 15.916-26.706 3.526-15.917-3.143-30.932-3.143-30.932s-12.39 10.79-15.916 26.708" fill="#8a603c"/>
  <path d="M91.178 46.988c-2.551 11.513-2.533 21.528 1.272 22.373 3.808.843 7.96-7.807 10.512-19.318 2.55-11.512-1.275-22.37-1.275-22.37s-7.958 7.802-10.51 19.315" fill="#f3dbbd"/>
  <path d="M67.135 46.404c3.526 15.917 2.12 29.766-3.143 30.93-5.261 1.166-12.388-10.792-15.916-26.706-3.525-15.918 3.143-30.932 3.143-30.932s12.39 10.79 15.916 26.708" fill="#8a603c"/>
  <path d="M63.497 46.987c2.551 11.514 2.534 21.528-1.273 22.374-3.807.842-7.96-7.808-10.51-19.319s1.271-22.37 1.271-22.37 7.961 7.803 10.512 19.315" fill="#f3dbbd"/>
  <path d="M108.231 92.609c1.362-22.148-12.956-38.903-30.894-39.171-17.936.268-32.254 17.023-30.891 39.171.547 8.901-2.157 17.794-2.157 25.049 0 7.255 7.161 14.586 32.303 14.586.253 0 .499-.003.745-.005.248.002.495.005.746.005 25.143 0 32.304-7.331 32.304-14.586s-2.705-16.148-2.156-25.049" fill="#966a4d"/>
  <path d="m77.808 100.489-.471.003c-.156-.001-.313-.003-.47-.003-17.992 0-32.577 7.722-32.577 17.246 0 9.525 14.585 17.246 32.577 17.246.157 0 .314-.002.47-.003l.471.003c17.991 0 32.577-7.721 32.577-17.246 0-9.524-14.586-17.246-32.577-17.246" fill="#313439"/>
  <path d="M85.356 84.761a4.38 4.38 0 1 0 8.76.002 4.38 4.38 0 0 0-8.76-.002" fill="#3b3e43"/>
  <path d="M89.433 81.233a2.798 2.798 0 1 0 5.597.001 2.798 2.798 0 0 0-5.597-.001" fill="#fff"/>
  <path d="M84.807 113.75a4.383 4.383 0 0 0 8.763 0 4.382 4.382 0 1 0-8.763 0" fill="#f3dbbd"/>
  <path d="M69.319 84.761a4.38 4.38 0 1 1-8.76 0 4.38 4.38 0 1 1 8.76 0" fill="#3b3e43"/>
  <path d="M65.245 81.233a2.8 2.8 0 1 1-5.598-.002 2.8 2.8 0 0 1 5.598.002" fill="#fff"/>
  <path d="M69.867 113.749a4.38 4.38 0 1 1-8.761 0 4.38 4.38 0 0 1 8.761 0" fill="#f3dbbd"/>
</svg>
