<svg viewBox="0 0 155 155" xmlns="http://www.w3.org/2000/svg" fill-rule="evenodd" clip-rule="evenodd" stroke-linejoin="round" stroke-miterlimit="2">
  <path d="M154.676 77.338c0 42.712-34.626 77.338-77.338 77.338C34.625 154.676 0 120.05 0 77.338 0 34.625 34.625 0 77.338 0c42.712 0 77.338 34.625 77.338 77.338" fill="#185787"/>
  <path d="M138.368 75.293c0 8.248-6.688 14.935-14.937 14.935-8.249 0-14.936-6.686-14.936-14.935 0-8.25 6.687-14.938 14.936-14.938 8.249 0 14.937 6.688 14.937 14.938" fill="#7b5735"/>
  <path d="M133.005 75.293a9.573 9.573 0 0 1-9.574 9.573c-5.288 0-9.575-4.285-9.575-9.573a9.575 9.575 0 0 1 9.575-9.576 9.573 9.573 0 0 1 9.574 9.576" fill="#f3dbbd"/>
  <path d="M46.18 73.382c0 8.248-6.687 14.935-14.935 14.935-8.25 0-14.936-6.687-14.936-14.935 0-8.25 6.687-14.937 14.936-14.937 8.248 0 14.936 6.687 14.936 14.937" fill="#7b5735"/>
  <path d="M40.82 73.382c0 5.288-4.288 9.574-9.575 9.574a9.573 9.573 0 0 1-9.574-9.574 9.573 9.573 0 0 1 9.574-9.575c5.287 0 9.575 4.286 9.575 9.575" fill="#f3dbbd"/>
  <path d="M123.917 77.187c0 25.912-21.005 46.917-46.916 46.917-25.911 0-46.915-21.005-46.915-46.917C30.086 51.276 51.09 30.27 77 30.27c25.91 0 46.916 21.005 46.916 46.916" fill="#8a603c"/>
  <path d="M116.706 73.685c.042-11.282-9.069-20.463-20.352-20.506-8.822-.034-16.361 5.532-19.248 13.356-2.829-7.845-10.323-13.468-19.147-13.501-11.283-.043-20.463 9.068-20.506 20.351-.043 11.282 9.068 20.463 20.351 20.507.311 0 .62-.008.928-.021-1.327 3.454-2.082 6.975-2.082 10.107 0 11.282 9.146 20.427 20.429 20.427 11.283 0 20.429-9.145 20.429-20.427 0-3.085-.641-6.55-1.798-9.956.163.005.325.014.489.014 11.283.043 20.463-9.068 20.507-20.351" fill="#f3dbbd"/>
  <path d="M85.544 74.187c0 5.83 4.725 10.553 10.554 10.553 5.83 0 10.552-4.723 10.552-10.553 0-5.83-4.722-10.553-10.552-10.553-5.83 0-10.554 4.724-10.554 10.553" fill="#d1bea5"/>
  <path d="M89.392 74.272a6.279 6.279 0 1 0 12.557-.001 6.279 6.279 0 0 0-12.557.001" fill="#3d342f"/>
  <path d="M94.774 69.09a2.99 2.99 0 1 0 5.978-.002 2.99 2.99 0 0 0-5.978.002" fill="#fff"/>
  <path d="M68.817 74.187c0 5.83-4.723 10.553-10.552 10.553-5.83 0-10.554-4.723-10.554-10.553 0-5.83 4.724-10.553 10.554-10.553 5.829 0 10.552 4.724 10.552 10.553" fill="#d1bea5"/>
  <path d="M64.97 74.272a6.279 6.279 0 1 1-12.557-.001 6.279 6.279 0 0 1 12.556.001" fill="#3d342f"/>
  <path d="M59.588 69.09a2.99 2.99 0 1 1-5.978-.002 2.99 2.99 0 0 1 5.978.002" fill="#fff"/>
  <path d="M81.611 108.4a4.038 4.038 0 1 1-8.076-.002 4.038 4.038 0 0 1 8.076.002" fill="#3d342f"/>
</svg>
