<svg viewBox="0 0 155 155" xmlns="http://www.w3.org/2000/svg" fill-rule="evenodd" clip-rule="evenodd" stroke-linejoin="round" stroke-miterlimit="2">
  <path d="M154.676 77.339c0 42.712-34.625 77.337-77.337 77.337C34.625 154.676 0 120.051 0 77.339 0 34.625 34.625 0 77.339 0c42.712 0 77.337 34.625 77.337 77.339" fill="#d8d423"/>
  <path d="M63.047 48.134c0 11.049-8.958 20.007-20.007 20.007-11.051 0-20.007-8.958-20.007-20.007 0-11.048 8.956-20.007 20.007-20.007 11.049 0 20.007 8.959 20.007 20.007M131.642 48.134c0 11.049-8.959 20.007-20.008 20.007s-20.006-8.958-20.006-20.007c0-11.048 8.957-20.007 20.006-20.007s20.008 8.959 20.008 20.007" fill="#313439"/>
  <path d="M125.881 81.521c5.46 23.914 0 45.027-48.313 45.027-48.314 0-50.319-18.732-45.411-45.027 4.69-25.128 18.727-44.233 45.411-44.233 26.683 0 42.619 19.296 48.313 44.233" fill="#f7f1e6"/>
  <path d="M89.694 87.265c2.57 8.632 13.167 10.05 19.136 6.263 5.967-3.788 7.076-12.735 2.476-19.981-4.597-7.248-13.164-10.052-19.133-6.263-5.967 3.787-4.927 11.752-2.48 19.98M87.706 99.67c0 3.29-3.837 7.384-8.574 7.384s-8.574-4.094-8.574-7.384c0-3.286 3.837-5.955 8.574-5.955s8.574 2.669 8.574 5.955" fill="#3b3e43"/>
  <path d="M70.193 117.116c-2.353 0-4.955-1.159-7.776-3.468a.877.877 0 0 1-.124-1.236.877.877 0 0 1 1.237-.124c3.298 2.698 6.14 3.622 8.442 2.746 4.59-1.746 5.95-9.96 5.961-10.042a.878.878 0 0 1 1.008-.73.879.879 0 0 1 .731 1.005c-.061.38-1.543 9.307-7.075 11.411a6.71 6.71 0 0 1-2.404.438" fill="#3b3e43"/>
  <path d="M86.519 117.888a5.575 5.575 0 0 1-2.088-.4c-5.26-2.105-6.244-11.859-6.284-12.274a.879.879 0 0 1 1.75-.167c.243 2.527 1.648 9.393 5.189 10.809 1.943.776 4.418-.122 7.359-2.673a.88.88 0 0 1 1.152 1.33c-2.591 2.245-4.962 3.375-7.078 3.375" fill="#3b3e43"/>
  <path d="M93.869 81.431a7.1 7.1 0 1 0 14.2 0 7.1 7.1 0 1 0-14.2 0" fill="#fff"/>
  <path d="M97.375 81.491a3.594 3.594 0 1 0 7.186 0 3.593 3.593 0 1 0-7.186 0" fill="#3b3e43"/>
  <path d="M100.159 78.668a1.887 1.887 0 1 0 3.774.002 1.887 1.887 0 0 0-3.774-.002" fill="#fff"/>
  <path d="M70.284 85.653c-2.572 8.634-13.166 10.05-19.134 6.262-5.968-3.788-7.078-12.734-2.479-19.98 4.6-7.248 13.169-10.05 19.134-6.262 5.968 3.789 4.928 11.752 2.479 19.98" fill="#3b3e43"/>
  <path d="M66.429 79.635a7.1 7.1 0 1 1-14.201 0 7.103 7.103 0 0 1 7.101-7.102c3.921 0 7.1 3.181 7.1 7.102" fill="#fff"/>
  <path d="M62.923 79.695a3.594 3.594 0 1 1-3.594-3.596 3.596 3.596 0 0 1 3.594 3.596" fill="#3b3e43"/>
  <path d="M60.138 76.871a1.887 1.887 0 1 1-3.774 0 1.888 1.888 0 1 1 3.774 0M84.718 97.888c-.202.79-1.373 1.172-2.614.856-1.243-.316-2.09-1.21-1.888-2 .201-.79 1.37-1.173 2.614-.857 1.242.317 2.087 1.212 1.888 2.001" fill="#fff"/>
</svg>
