<svg viewBox="0 0 155 155" xmlns="http://www.w3.org/2000/svg" fill-rule="evenodd" clip-rule="evenodd" stroke-linejoin="round" stroke-miterlimit="2">
  <path d="M154.676 77.338c0 42.712-34.625 77.338-77.337 77.338C34.625 154.676 0 120.05 0 77.338 0 34.626 34.625 0 77.339 0c42.712 0 77.337 34.626 77.337 77.338" fill="#185787"/>
  <path d="M123.41 81.549c0 22.71-20.576 41.12-45.958 41.12-25.382 0-45.96-18.41-45.96-41.12 0-22.709 20.578-41.12 45.96-41.12s45.958 18.411 45.958 41.12" fill="#f7a99b"/>
  <path d="M101.64 99.126c0 8.549-10.612 15.482-23.704 15.482-13.094 0-23.704-6.933-23.704-15.482s10.61-15.48 23.704-15.48c13.092 0 23.704 6.931 23.704 15.48M85.709 72.199a8.508 8.508 0 1 0 17.013-.001 8.508 8.508 0 0 0-17.013.001" fill="#d69488"/>
  <path d="M88.81 72.269a5.06 5.06 0 1 0 10.121-.003 5.06 5.06 0 0 0-10.121.003" fill="#3d342f"/>
  <path d="M93.148 68.091a2.41 2.41 0 1 0 4.82 0 2.41 2.41 0 1 0-4.82 0" fill="#fff"/>
  <path d="M72.225 72.199a8.508 8.508 0 1 1-17.016-.002 8.508 8.508 0 0 1 17.016.002" fill="#d69488"/>
  <path d="M69.122 72.269a5.06 5.06 0 1 1-10.121-.003 5.06 5.06 0 0 1 10.121.003" fill="#3d342f"/>
  <path d="M64.783 68.091a2.408 2.408 0 1 1-4.818 0 2.409 2.409 0 1 1 4.818 0" fill="#fff"/>
  <path d="M73.82 99.448a4.274 4.274 0 1 1-8.547 0 4.274 4.274 0 0 1 8.547 0M91.452 99.662a4.275 4.275 0 1 1-8.55 0 4.275 4.275 0 0 1 8.55 0" fill="#3d342f"/>
  <path d="M123.018 59.535c-6.062 5.443-15.226 5.123-20.467-.715-5.243-5.838-4.58-14.983 1.48-20.426 6.063-5.442 27.747-7.16 28.715-6.084.968 1.08-3.666 21.782-9.728 27.225" fill="#f7a99b"/>
  <path d="M120.924 55.567c-4.204 3.776-10.56 3.554-14.198-.496s-3.179-10.394 1.029-14.17c4.204-3.774 19.246-4.967 19.917-4.218.673.747-2.544 15.109-6.748 18.884" fill="#d69488"/>
  <path d="M31.657 59.535c6.061 5.443 15.226 5.123 20.467-.716 5.243-5.837 4.578-14.982-1.483-20.425-6.06-5.442-27.744-7.161-28.713-6.084-.968 1.079 3.667 21.782 9.73 27.225" fill="#f7a99b"/>
  <path d="M33.752 55.567c4.204 3.775 10.561 3.554 14.196-.497 3.638-4.048 3.178-10.393-1.024-14.169-4.207-3.775-19.251-4.968-19.921-4.219-.672.747 2.544 15.11 6.75 18.885" fill="#d69488"/>
</svg>
