<svg viewBox="0 0 155 155" xmlns="http://www.w3.org/2000/svg" fill-rule="evenodd" clip-rule="evenodd" stroke-linecap="round" stroke-miterlimit="10">
  <path d="M154.676 77.339c0 42.711-34.625 77.337-77.337 77.337C34.625 154.676 0 120.05 0 77.339 0 34.625 34.625 0 77.339 0c42.712 0 77.337 34.625 77.337 77.339" fill="#f0592b"/>
  <path d="M75.727 58.373s-.957 30.057-6.354 30.68c-5.396.625-13.188-28.42-13.188-28.42s-10.418-39.021 6.446-40.195c16.867-1.17 13.096 37.935 13.096 37.935" fill="#8a603c"/>
  <path d="M73.026 58.685s-.693 21.741-4.597 22.19c-3.903.453-9.538-20.555-9.538-20.555s-7.323-33.37 4.673-34.203c11.994-.834 9.462 32.568 9.462 32.568" fill="#f3dbbd"/>
  <path d="M82.669 58.374s.956 30.057 6.352 30.68c5.397.623 13.189-28.42 13.189-28.42s10.42-39.022-6.445-40.195c-16.866-1.17-13.096 37.935-13.096 37.935" fill="#8a603c"/>
  <path d="M85.371 58.685s.692 21.741 4.596 22.192c3.904.451 9.54-20.557 9.54-20.557s7.322-33.37-4.673-34.203c-11.995-.834-9.463 32.568-9.463 32.568" fill="#f3dbbd"/>
  <path d="M108.407 106.642c4.966 7.727 8.407 27.62-30.373 27.62-38.784.001-32.162-20.815-28.85-27.803-1.386-22.503 11.757-39.852 30.039-39.853 18.285 0 29.922 16.888 29.184 40.036" fill="#966a4d"/>
  <path d="M84.14 93.16a6.302 6.302 0 0 0 12.601 0 6.301 6.301 0 0 0-12.601 0" fill="#f3dbbd"/>
  <path d="M86.437 93.21a3.748 3.748 0 1 0 7.495 0 3.748 3.748 0 0 0-7.495 0" fill="#3d342f"/>
  <path d="M89.648 90.117a1.785 1.785 0 1 0 3.57-.001 1.785 1.785 0 0 0-3.57.001" fill="#fff"/>
  <path d="M75.074 92.791a6.3 6.3 0 1 1-12.598.002 6.3 6.3 0 0 1 12.598-.002" fill="#f3dbbd"/>
  <path d="M71.858 93.211a3.748 3.748 0 1 1-7.492 0 3.748 3.748 0 0 1 7.492 0" fill="#3d342f"/>
  <path d="M68.647 90.117a1.786 1.786 0 0 1-3.57 0 1.785 1.785 0 1 1 3.57 0" fill="#fff"/>
  <g transform="translate(96.881 176.536)">
    <clipPath id="a">
      <path d="M-47.696-70.077c-3.313 6.989-9.935 27.804 28.849 27.804 38.781 0 35.339-19.894 30.374-27.621.737-23.149-10.9-40.035-29.184-40.035-18.283 0-31.426 17.35-30.039 39.852Z"/>
    </clipPath>
    <g clip-path="url(#a)">
      <path d="M0-71.731a36.978 36.978 0 0 0-18.024 4.659 36.982 36.982 0 0 0-18.025-4.659c-20.52 0-37.153 14.057-37.153 34.577C-73.202-16.634-56.569 0-36.049 0a36.993 36.993 0 0 0 18.025-4.66A36.99 36.99 0 0 0 0 0c20.52 0 37.153-16.634 37.153-37.154 0-20.52-16.633-34.577-37.153-34.577" fill="#f3dbbd"/>
    </g>
  </g>
  <path d="M86.459 109.407c0 2.377-5.068 6.081-7.096 6.081-2.027 0-8.109-3.704-8.109-6.081 0-2.38 3.404-4.31 7.602-4.31 4.199 0 7.603 1.93 7.603 4.31" fill="#3d342f"/>
  <path d="M71.517 124.131c-1.966 0-4.147-.972-6.505-2.9a.74.74 0 0 1-.104-1.038.738.738 0 0 1 1.036-.102c2.758 2.258 5.136 3.03 7.062 2.298 3.84-1.46 4.978-8.332 4.988-8.402a.737.737 0 0 1 1.454.231c-.051.318-1.291 7.785-5.919 9.546a5.579 5.579 0 0 1-2.012.367" fill="#3d342f"/>
  <path d="M85.176 124.775a4.64 4.64 0 0 1-1.747-.334c-4.399-1.761-5.224-9.921-5.257-10.268a.733.733 0 0 1 .661-.801.734.734 0 0 1 .804.661c.202 2.114 1.378 7.857 4.34 9.043 1.625.651 3.696-.103 6.155-2.236a.737.737 0 0 1 .964 1.113c-2.165 1.879-4.149 2.822-5.92 2.822" fill="#3d342f"/>
  <path d="M95.596 114.183s6.007-5.884 23.662-8.583M96.61 116.452s7.3-4.178 25.066-2.326M96.915 119.25s8.05-2.432 24.947 3.355M59.083 113.448s-6.009-5.887-23.665-8.581M58.065 115.715s-7.3-4.177-25.064-2.325M57.762 118.514s-8.051-2.43-24.949 3.356" fill="none" stroke="#3d342f" stroke-width="2"/>
</svg>
