<svg viewBox="0 0 155 155" xmlns="http://www.w3.org/2000/svg" fill-rule="evenodd" clip-rule="evenodd" stroke-linejoin="round" stroke-miterlimit="2">
  <path d="M154.676 77.338c0 42.712-34.625 77.338-77.339 77.338C34.625 154.676 0 120.05 0 77.338 0 34.625 34.625 0 77.337 0c42.714 0 77.339 34.625 77.339 77.338" fill="#d8d423"/>
  <path d="M127.97 75.009c19.83 36.667-8.313 48.51-53.976 48.51-52.011 0-61.608-14.716-48.407-48.92C36.917 45.247 57 41.642 75.024 41.642c18.022 0 38.697 7.017 52.947 33.367" fill="#e0dcd3"/>
  <path d="M124.263 101.119c-4.699 7.795-17.155 9.913-31.83 11.457-7.795-4.696-9.349-32.43-7.428-41.324 2.062-9.526 11.503-16.821 24.075-6.903 7.147 5.634 19.88 28.976 15.183 36.77M30.262 102.407c4.696 7.794 23.719 10.042 33.115 11.07 7.797-4.696 10.602-31.54 8.112-43.64-1.833-8.915-15.32-18.54-27.42-5.28-12.102 13.261-18.506 30.055-13.807 37.85" fill="#bab7b0"/>
  <path d="M93.349 79.024a8.316 8.316 0 0 0 8.316 8.315 8.315 8.315 0 1 0 0-16.63 8.317 8.317 0 0 0-8.316 8.315" fill="#fff"/>
  <path d="M97.457 79.094a4.206 4.206 0 0 0 4.21 4.207 4.208 4.208 0 0 0 0-8.416 4.208 4.208 0 0 0-4.21 4.21" fill="#3b3e43"/>
  <path d="M100.717 75.788a2.212 2.212 0 0 0 4.422 0 2.211 2.211 0 0 0-4.422 0M61.217 76.919a8.317 8.317 0 1 1-8.315-8.316 8.317 8.317 0 0 1 8.315 8.316" fill="#fff"/>
  <path d="M57.11 76.99a4.208 4.208 0 0 1-8.419 0 4.21 4.21 0 1 1 8.418 0" fill="#3b3e43"/>
  <path d="M53.85 73.684a2.21 2.21 0 0 1-2.212 2.209 2.21 2.21 0 1 1 0-4.42 2.21 2.21 0 0 1 2.212 2.21M104.332 103.695c0 8.53-16.004 15.447-29.832 15.447s-25.037-6.916-25.037-15.447c0-8.533 11.21-15.45 25.037-15.45 13.828 0 29.832 6.917 29.832 15.45" fill="#fff"/>
  <path d="M87.285 102.667c0 3.986-4.651 8.946-10.39 8.946-5.736 0-10.385-4.96-10.385-8.946 0-3.985 4.649-7.214 10.386-7.214 5.738 0 10.389 3.229 10.389 7.214" fill="#3b3e43"/>
  <path d="M83.663 100.507c-.242.956-1.66 1.42-3.167 1.037-1.505-.383-2.527-1.467-2.286-2.423.244-.957 1.662-1.42 3.168-1.038 1.505.383 2.528 1.467 2.285 2.424" fill="#fff"/>
  <path d="M35.871 31.686c-7.553 3.646.275 27.806.275 27.806l25.585-15.09S43.426 28.04 35.871 31.686" fill="#e0dcd3"/>
  <path d="M38.953 35.225c-5.074 2.45.187 18.683.187 18.683L56.331 43.77S44.03 32.774 38.953 35.225" fill="#bab7b0"/>
  <path d="M118.695 31.686c7.552 3.646-.276 27.806-.276 27.806l-25.583-15.09s18.306-16.362 25.859-12.716" fill="#e0dcd3"/>
  <path d="M115.611 35.225c5.076 2.45-.184 18.683-.184 18.683L98.236 43.77s12.302-10.996 17.375-8.545" fill="#bab7b0"/>
</svg>
