<svg viewBox="0 0 155 160" xmlns="http://www.w3.org/2000/svg" fill-rule="evenodd" clip-rule="evenodd" stroke-linecap="round" stroke-miterlimit="10">
  <path d="M154.676 77.338c0 42.712-34.625 77.338-77.337 77.338C34.625 154.676 0 120.05 0 77.338 0 34.625 34.625 0 77.339 0c42.712 0 77.337 34.625 77.337 77.338" fill="#62a5a2"/>
  <path d="M70.873 55.002c0 8.844-7.171 16.014-16.015 16.014-8.845 0-16.015-7.17-16.015-16.014 0-8.846 7.17-16.015 16.015-16.015 8.844 0 16.015 7.169 16.015 16.015" fill="#e39335"/>
  <path d="M64.468 55.002c0 5.307-4.303 9.608-9.609 9.608-5.308 0-9.611-4.3-9.611-9.608 0-5.308 4.303-9.609 9.611-9.609 5.306 0 9.609 4.301 9.609 9.61" fill="#8a603c"/>
  <path d="M82.575 55.002c0 8.844 7.172 16.014 16.015 16.014 8.845 0 16.015-7.17 16.015-16.014 0-8.846-7.17-16.015-16.015-16.015-8.843 0-16.015 7.169-16.015 16.015" fill="#e39335"/>
  <path d="M88.982 55.001c0 5.307 4.303 9.608 9.607 9.608 5.309 0 9.612-4.3 9.612-9.608 0-5.308-4.303-9.609-9.612-9.609-5.304 0-9.607 4.301-9.607 9.61" fill="#8a603c"/>
  <path d="M109.458 80.244c-4.735-23.885-11.941-30.329-32.461-30.329-.092 0-.183.003-.272.003-.091 0-.181-.003-.272-.003-20.519 0-27.727 6.444-32.462 30.33-7.1 9.476-6.051 38.36 31.102 38.36.552 0 1.093-.005 1.632-.013.537.008 1.079.013 1.631.013 37.154 0 38.203-28.884 31.102-38.36" fill="#e39335"/>
  <g transform="matrix(0 -1 -1 0 80.006 82.66)">
    <clipPath id="a">
      <path d="M34.825 3.281c0 .091.003.181.003.272 0 20.519-6.639 27.727-31.249 32.462-9.764 7.1-39.525 6.051-39.525-31.102 0-.552.005-1.093.014-1.632a97.17 97.17 0 0 1-.014-1.632c0-37.153 29.761-38.202 39.525-31.101 24.61 4.735 31.249 11.941 31.249 32.46 0 .092-.003.183-.003.273Z"/>
    </clipPath>
    <g clip-path="url(#a)">
      <path d="M-44.335-38.475c-17.689 0-32.029 17.244-32.029 41.404 0 24.161 14.34 41.406 32.029 41.406 17.689 0 37.889-17.245 37.889-41.406 0-24.16-20.2-41.404-37.889-41.404" fill="#f3dbbd"/>
    </g>
  </g>
  <path d="M65.869 76.93a6.306 6.306 0 1 1-12.613 0 6.308 6.308 0 1 1 12.613 0" fill="#8a603c"/>
  <path d="M62.756 76.984a3.193 3.193 0 1 1-6.387-.003 3.193 3.193 0 0 1 6.387.003" fill="#3b3e43"/>
  <path d="M60.28 74.475a1.676 1.676 0 1 1-3.351 0 1.676 1.676 0 1 1 3.351 0" fill="#fff"/>
  <path d="M85.162 91.603c0 2.922-3.41 5.387-7.616 5.387-4.208 0-7.617-2.465-7.617-5.387 0-2.92 3.409-5.29 7.617-5.29 4.206 0 7.616 2.37 7.616 5.29" fill="#3b3e43"/>
  <path d="M69.605 107.101c-2.09 0-4.404-1.03-6.908-3.08a.781.781 0 1 1 .989-1.209c2.929 2.397 5.453 3.218 7.5 2.44 4.076-1.552 5.283-8.847 5.294-8.92a.78.78 0 0 1 .896-.649.78.78 0 0 1 .648.894c-.055.336-1.369 8.266-6.283 10.135a5.965 5.965 0 0 1-2.136.39" fill="#3b3e43"/>
  <path d="M84.108 107.786a4.94 4.94 0 0 1-1.854-.355c-4.672-1.87-5.548-10.536-5.584-10.904a.781.781 0 1 1 1.555-.148c.215 2.244 1.464 8.344 4.608 9.602 1.727.69 3.925-.109 6.538-2.373a.779.779 0 0 1 1.101.077.783.783 0 0 1-.077 1.102c-2.302 1.995-4.406 3-6.287 3" fill="#3b3e43"/>
  <path d="M82.507 90.02c-.18.7-1.218 1.04-2.32.76-1.107-.28-1.856-1.076-1.679-1.777.18-.7 1.218-1.042 2.322-.76 1.104.281 1.856 1.076 1.677 1.776" fill="#fff"/>
  <path d="M87.578 76.93a6.307 6.307 0 1 0 12.615-.003 6.307 6.307 0 0 0-12.615.003" fill="#8a603c"/>
  <path d="M90.694 76.984a3.192 3.192 0 1 0 6.386-.002 3.192 3.192 0 0 0-6.386.002" fill="#3b3e43"/>
  <path d="M93.168 74.475a1.676 1.676 0 1 0 3.353 0 1.677 1.677 0 0 0-3.353 0" fill="#fff"/>
  <path d="M61.92 93.893s-8.545-5.398-32.064-5.843M60.83 96.427s-10.058-3.419-33.22.955M60.738 99.424s-10.857-1.473-32.446 6.94M92.321 94.675s8.545-5.4 32.062-5.846M93.41 97.206s10.059-3.418 33.22.956M93.503 100.206s10.856-1.474 32.444 6.94" fill="none" stroke="#3d342f" stroke-width="2"/>
</svg>
