<svg viewBox="0 0 155 155" xmlns="http://www.w3.org/2000/svg" fill-rule="evenodd" clip-rule="evenodd" stroke-linejoin="round" stroke-miterlimit="2">
  <path d="M154.676 77.339c0 42.711-34.626 77.337-77.338 77.337C34.625 154.676 0 120.05 0 77.339 0 34.625 34.625 0 77.338 0c42.712 0 77.338 34.625 77.338 77.339" fill="#d8d423"/>
  <path d="M65.726 41.76c3.055 13.784 1.837 25.78-2.721 26.79-4.559 1.01-10.73-9.348-13.785-23.134-3.055-13.785-1.837-25.778 2.722-26.79 4.558-1.009 10.73 9.348 13.784 23.134" fill="#e0dcd3"/>
  <path d="M63.996 42.142c2.416 10.896 1.451 20.374-2.152 21.174-3.602.797-8.48-7.388-10.894-18.282-2.414-10.896-1.451-20.375 2.151-21.172 3.604-.799 8.479 7.384 10.895 18.28" fill="#313439"/>
  <path d="M87.836 41.76C84.783 55.544 86 67.54 90.56 68.55c4.557 1.01 10.728-9.346 13.784-23.133 3.055-13.785 1.835-25.779-2.722-26.79-4.56-1.009-10.73 9.348-13.786 23.134" fill="#e0dcd3"/>
  <path d="M89.57 42.142c-2.416 10.896-1.453 20.374 2.15 21.175 3.601.797 8.48-7.389 10.893-18.283 2.414-10.895 1.451-20.374-2.151-21.172-3.6-.799-8.48 7.384-10.892 18.28" fill="#313439"/>
  <path d="M111.663 90.774c0 27.271 9.5 42.419-34.325 42.419-43.823 0-34.326-17.781-34.326-42.419 0-23.428 14.937-42.42 34.326-42.42 19.388 0 34.325 18.992 34.325 42.42" fill="#f7f1e6"/>
  <path d="M112.443 117.687c0 10.179-15.586 18.431-34.813 18.431-19.226 0-34.81-8.252-34.81-18.431s15.584-18.431 34.81-18.431c19.227 0 34.813 8.252 34.813 18.431M69.565 82.45a4.682 4.682 0 1 1-9.363 0 4.682 4.682 0 0 1 9.363 0" fill="#313439"/>
  <path d="M65.21 78.68a2.99 2.99 0 1 1-5.982-.002 2.99 2.99 0 0 1 5.981.002" fill="#fff"/>
  <path d="M85.04 82.45a4.68 4.68 0 1 0 4.681-4.681 4.68 4.68 0 0 0-4.68 4.681" fill="#313439"/>
  <path d="M89.395 78.679a2.99 2.99 0 1 0 5.981 0 2.991 2.991 0 0 0-5.98 0" fill="#fff"/>
  <g transform="translate(-55.363 -580.82)">
    <clipPath id="a">
      <path d="M98.375 671.593c0 23.428-6.044 42.42 34.326 42.42 40.372 0 34.325-18.992 34.325-42.42 0-23.427-14.937-42.419-34.325-42.419-19.388 0-34.326 18.992-34.326 42.419Z"/>
    </clipPath>
    <g clip-path="url(#a)">
      <path d="M177.33 667.561s-.092.092-.258.23c-.165.128-.413.356-.718.568-.612.445-1.473.976-2.478 1.416a13.18 13.18 0 0 1-4.278 1.079c-.301.023-.579.062-.869.074-.576.031-1.152.021-1.725-.033a12.404 12.404 0 0 1-1.699-.298 9.856 9.856 0 0 1-1.606-.403 11.748 11.748 0 0 1-1.539-.644 15.992 15.992 0 0 1-1.513-.743 13.952 13.952 0 0 1-2.314-1.653c-.282-.242-.508-.492-.661-.637-.154-.155-.237-.256-.237-.256s.073-.108.212-.275c.14-.157.343-.427.606-.692a13.33 13.33 0 0 1 2.211-1.851c.467-.297.964-.616 1.512-.867a13.372 13.372 0 0 1 1.838-.606c.645-.162 1.32-.29 2.005-.361.666-.025 1.34.003 2.011.065.671.07 1.338.182 1.987.334.32.077.651.164.949.264a13.256 13.256 0 0 1 3.83 2.211 13.639 13.639 0 0 1 2.008 2.042c.236.288.414.574.539.742.124.181.187.294.187.294M168.379 637.901s-.045.126-.142.331c-.1.193-.234.515-.43.85a14.698 14.698 0 0 1-1.739 2.459c-.392.429-.816.884-1.229 1.319-.424.434-.881.846-1.365 1.228-.487.391-.99.709-1.541 1.063-.546.34-1.116.646-1.703.914-1.188.507-2.401.962-3.656 1.177-.626.112-1.236.214-1.847.257-.605.055-1.222.038-1.781.04a17.633 17.633 0 0 1-2.951-.334c-.381-.07-.714-.176-.926-.221-.219-.056-.347-.099-.347-.099s.016-.131.067-.354c.057-.214.125-.555.254-.926.123-.379.291-.824.508-1.29.219-.467.487-.963.803-1.476.32-.505.688-1.013 1.109-1.507.422-.491.883-.991 1.399-1.43.517-.442 1.07-.867 1.66-1.247a12.46 12.46 0 0 1 1.857-1.009 17.858 17.858 0 0 1 1.981-.741c.656-.215 1.39-.338 2.074-.436a15.643 15.643 0 0 1 2.028-.139c.66-.019 1.272.07 1.841.171 1.148.206 2.16.535 2.892.835.363.139.668.307.868.396.202.1.316.169.316.169M178.499 689.403s-.147.021-.403.034c-.248.001-.641.045-1.085.047a25.62 25.62 0 0 1-1.552-.021c-.59-.022-1.23-.074-1.9-.157-.658-.101-1.386-.18-2.107-.328-.727-.138-1.456-.337-2.201-.548a19.965 19.965 0 0 1-2.241-.728 19.466 19.466 0 0 1-1.097-.464 40.825 40.825 0 0 1-1.102-.466 22.39 22.39 0 0 1-2.113-1.102c-.675-.424-1.35-.798-1.987-1.224a20.394 20.394 0 0 1-2.627-2.076c-.266-.232-.53-.437-.777-.663a20.773 20.773 0 0 1-2.372-2.518c-.286-.348-.499-.682-.653-.883a5.8 5.8 0 0 1-.227-.343s.126-.072.357-.173c.228-.091.574-.26 1.001-.4.858-.3 2.079-.62 3.53-.795.364-.046.736-.07 1.128-.103.379-.006.768.006 1.167.026a22.89 22.89 0 0 1 2.479.273c.848.143 1.728.306 2.555.617a28.26 28.26 0 0 1 2.494.994c.405.195.816.378 1.206.598.388.222.765.463 1.137.704a24.006 24.006 0 0 1 2.104 1.544c.65.551 1.234 1.156 1.77 1.744.535.59 1.009 1.186 1.412 1.789.402.601.745 1.178 1.027 1.712.282.541.501 1.056.661 1.482.169.421.256.796.326 1.035.066.247.09.393.09.393M88.955 668.209s.065-.113.19-.294c.129-.17.31-.457.554-.745a13.86 13.86 0 0 1 2.056-2.055 13.78 13.78 0 0 1 3.05-1.877 9.743 9.743 0 0 1 1.826-.63 16.083 16.083 0 0 1 1.987-.361c.673-.07 1.345-.114 2.018-.09a14.368 14.368 0 0 1 3.857.818c.559.228 1.088.509 1.577.781a13.65 13.65 0 0 1 2.36 1.717c.285.25.509.506.66.654.154.16.236.263.236.263s-.08.106-.226.27c-.148.153-.364.416-.64.674a13.883 13.883 0 0 1-2.277 1.787c-.472.287-.982.584-1.523.829-.517.267-1.048.507-1.6.706a11.21 11.21 0 0 1-1.693.473c-.582.138-1.18.258-1.78.324-.6.066-1.205.087-1.808.068a21.135 21.135 0 0 1-1.844-.159 13.622 13.622 0 0 1-3.444-.957 13.76 13.76 0 0 1-2.537-1.403c-.312-.21-.566-.436-.735-.563-.17-.138-.264-.23-.264-.23M93.958 639.75s.123-.067.342-.162c.215-.085.544-.246.937-.379.794-.283 1.893-.59 3.149-.77a17.72 17.72 0 0 1 4.117-.105c.722.058 1.46.178 2.202.367.738.181 1.477.404 2.201.669 1.444.536 2.834 1.227 4.06 2.053.604.419 1.172.866 1.694 1.329.524.457.993.952 1.422 1.418.424.478.798.947 1.118 1.394.319.452.585.873.792 1.243.213.358.356.696.463.902.103.216.15.348.15.348s-.126.06-.352.144c-.22.074-.558.219-.958.331-.805.242-1.916.501-3.175.632-.625.057-1.297.106-1.981.094a17.49 17.49 0 0 1-2.104-.15 18.04 18.04 0 0 1-4.248-1.022c-1.393-.512-2.679-1.21-3.924-1.986a17.816 17.816 0 0 1-3.197-2.604 16.437 16.437 0 0 1-2.024-2.535c-.232-.345-.393-.674-.513-.873-.115-.209-.171-.338-.171-.338M121.943 618.971s.135.036.358.118c.214.088.561.199.935.376.767.343 1.769.88 2.793 1.616.506.369 1.039.773 1.536 1.301.503.511.997 1.076 1.468 1.687.237.304.464.623.688.948.202.338.403.683.59 1.037.372.712.729 1.439 1.011 2.212.259.789.479 1.593.65 2.393.157.802.209 1.614.243 2.396.033.785-.052 1.508-.136 2.219-.084.717-.254 1.348-.413 1.955-.173.604-.37 1.176-.562 1.668-.197.5-.394.945-.582 1.32-.176.373-.372.683-.481.889-.119.208-.2.324-.2.324s-.121-.066-.317-.201c-.186-.136-.496-.328-.815-.594a14.232 14.232 0 0 1-1.103-.982c-.401-.395-.79-.833-1.194-1.328a27.411 27.411 0 0 1-1.156-1.591c-.374-.541-.698-1.156-1.03-1.724a18.14 18.14 0 0 1-.88-1.779 15.139 15.139 0 0 1-.741-1.849c-.226-.636-.455-1.285-.619-1.945a16.97 16.97 0 0 1-.219-.995c-.075-.332-.15-.66-.206-.992a16.527 16.527 0 0 1-.226-1.985c-.024-.647-.05-1.324-.061-1.951a16.28 16.28 0 0 1 .315-3.207c.075-.405.188-.753.241-.977.063-.229.113-.359.113-.359M143.754 621.441s.055.122.127.336c.063.209.19.533.282.911.203.766.4 1.812.457 2.977.016.581.027 1.203.032 1.801a14.142 14.142 0 0 1-.13 1.832c-.078.62-.22 1.197-.369 1.834a15.177 15.177 0 0 1-.59 1.842c-.502 1.19-1.059 2.36-1.812 3.386-.373.516-.741 1.012-1.151 1.468-.395.46-.851.876-1.252 1.265a17.454 17.454 0 0 1-2.355 1.81c-.322.215-.635.371-.819.485-.196.113-.318.17-.318.17s-.081-.105-.198-.301c-.108-.193-.296-.486-.461-.842a11.675 11.675 0 0 1-.531-1.283 14.686 14.686 0 0 1-.448-1.617 13.24 13.24 0 0 1-.25-1.855c-.037-.647-.052-1.326.014-2.001.064-.677.167-1.366.327-2.05.149-.687.371-1.359.635-2.016.266-.657.572-1.297.911-1.909.322-.61.765-1.209 1.189-1.755.433-.548.892-1.053 1.361-1.509.463-.472.964-.833 1.444-1.157a14.608 14.608 0 0 1 2.661-1.406c.358-.152.694-.244.899-.318.215-.069.345-.098.345-.098M87.09 689.795s.028-.147.1-.398c.076-.243.171-.624.351-1.052.17-.435.401-.953.695-1.508a20.31 20.31 0 0 1 1.072-1.743c.832-1.231 1.966-2.446 3.283-3.623a25.578 25.578 0 0 1 2.167-1.59c.764-.5 1.554-.985 2.406-1.361.843-.387 1.704-.74 2.567-1.044.435-.147.86-.3 1.3-.407.446-.1.887-.193 1.326-.268a24.435 24.435 0 0 1 2.557-.314c.411-.028.811-.046 1.202-.046.395.008.787.041 1.161.08 1.498.157 2.757.462 3.641.753.44.135.795.301 1.03.389.237.099.367.169.367.169s-.08.132-.237.348c-.16.204-.383.541-.68.891a21.597 21.597 0 0 1-2.459 2.552l-1.648 1.424a21.632 21.632 0 0 1-2.884 2.018l-1.038.646c-.705.419-1.438.802-2.187 1.149-.759.325-1.508.684-2.27.991a21.88 21.88 0 0 1-2.317.779c-.762.242-1.52.447-2.269.605-.748.16-1.49.262-2.169.376-.69.097-1.348.162-1.954.193-.598.034-1.127.055-1.592.051-.456.004-.855-.034-1.109-.031-.262-.009-.412-.029-.412-.029" fill="#313439"/>
    </g>
  </g>
  <path d="M70.15 113.43a4.68 4.68 0 1 1-9.362 0 4.682 4.682 0 1 1 9.362 0M96.547 113.43a4.681 4.681 0 0 1-9.362 0 4.682 4.682 0 1 1 9.362 0" fill="#f7f1e6"/>
</svg>
